# xmcd
#
# Track frame offsets:
#	150
#	9703
#	18170
#	35957
#	43603
#	54356
#	64391
#	75556
#	85556
#	103343
#	110875
#	126910
#	140198
#
# Disc length: 2013 seconds
#
# Revision: 1
# Processed by: cddbd v1.5.1PL2 Copyright (c) Steve Scherf et al.
# Submitted via: audiograbber 1.83.01
#
DISCID=b807db0d
DTITLE=Cwrkot - The Evening at the Old Rebel Pub
DYEAR=2004
DGENRE=Bluegrass
TTITLE0=Froggie went A'Courtin
TTITLE1=Neath A Gold Grey Tomb of Stone
TTITLE2=Crying my Heart Out over You
TTITLE3=Daybreak in Dixie
TTITLE4=Man From Rosine
TTITLE5=Prisoner's Song
TTITLE6=Back To my Old Home Place
TTITLE7=Alabama Jubilee
TTITLE8=Dark Hollow
TTITLE9=It's Two O'Clock
TTITLE10=At The Down of the Day
TTITLE11=In The Jailhouse Now
TTITLE12=At The Old Rebel Pub
EXTD=
EXTT0=
EXTT1=
EXTT2=
EXTT3=
EXTT4=
EXTT5=
EXTT6=
EXTT7=
EXTT8=
EXTT9=
EXTT10=
EXTT11=
EXTT12=
PLAYORDER=
